HIERARCHY
ROOT root
{
	OFFSET 0.000000 0.000000 0.000000
	CHANNELS 6 Xposition Yposition Zposition Zrotation Yrotation Xrotation
	JOINT lhip
	{
		OFFSET 0.058581 -0.082280 -0.017664
		CHANNELS 3 Zrotation Yrotation Xrotation
		JOINT lknee
		{
			OFFSET 0.043451 -0.386469 0.008037
			CHANNELS 3 Zrotation Yrotation Xrotation
			JOINT lankle
			{
				OFFSET -0.014790 -0.426874 -0.037428
				CHANNELS 3 Zrotation Yrotation Xrotation
				JOINT ltoe
				{
					OFFSET 0.041054 -0.060286 0.122042
					CHANNELS 3 Zrotation Yrotation Xrotation
					End Site
					{
						OFFSET 0.000000 0.000000 0.000000
					}
				}
			}
		}
	}
	JOINT rhip
	{
		OFFSET -0.060310 -0.090513 -0.013543
		CHANNELS 3 Zrotation Yrotation Xrotation
		JOINT rknee
		{
			OFFSET -0.043257 -0.383688 -0.004843
			CHANNELS 3 Zrotation Yrotation Xrotation
			JOINT rankle
			{
				OFFSET 0.019056 -0.420046 -0.034562
				CHANNELS 3 Zrotation Yrotation Xrotation
				JOINT rtoe
				{
					OFFSET -0.034840 -0.062106 0.130323
					CHANNELS 3 Zrotation Yrotation Xrotation
					End Site
					{
						OFFSET 0.000000 0.000000 0.000000
					}
				}
			}
		}
	}
	JOINT lowerback
	{
		OFFSET 0.004439 0.124404 -0.038385
		CHANNELS 3 Zrotation Yrotation Xrotation
		JOINT upperback
		{
			OFFSET 0.004488 0.137956 0.026820
			CHANNELS 3 Zrotation Yrotation Xrotation
			JOINT chest
			{
				OFFSET -0.002265 0.056032 0.002855
				CHANNELS 3 Zrotation Yrotation Xrotation
				JOINT lowerneck
				{
					OFFSET -0.013390 0.211636 -0.033468
					CHANNELS 3 Zrotation Yrotation Xrotation
					JOINT upperneck
					{
						OFFSET 0.010113 0.088937 0.050410
						CHANNELS 3 Zrotation Yrotation Xrotation
						End Site
						{
							OFFSET 0.000000 0.000000 0.000000
						}
					}
				}
				JOINT lclavicle
				{
					OFFSET 0.071702 0.114000 -0.018898
					CHANNELS 3 Zrotation Yrotation Xrotation
					JOINT lshoulder
					{
						OFFSET 0.122921 0.045205 -0.019046
						CHANNELS 3 Zrotation Yrotation Xrotation
						JOINT lelbow
						{
							OFFSET 0.255332 -0.015649 -0.022946
							CHANNELS 3 Zrotation Yrotation Xrotation
							JOINT lwrist
							{
								OFFSET 0.265709 0.012698 -0.007375
								CHANNELS 3 Zrotation Yrotation Xrotation
								End Site
								{
									OFFSET 0.000000 0.000000 0.000000
								}
							}
						}
					}
				}
				JOINT rclavicle
				{
					OFFSET -0.082954 0.112472 -0.023707
					CHANNELS 3 Zrotation Yrotation Xrotation
					JOINT rshoulder
					{
						OFFSET -0.113228 0.046853 -0.008472
						CHANNELS 3 Zrotation Yrotation Xrotation
						JOINT relbow
						{
							OFFSET -0.260127 -0.014369 -0.031269
							CHANNELS 3 Zrotation Yrotation Xrotation
							JOINT rwrist
							{
								OFFSET -0.269108 0.006794 -0.006027
								CHANNELS 3 Zrotation Yrotation Xrotation
								End Site
								{
									OFFSET 0.000000 0.000000 0.000000
								}
							}
						}
					}
				}
			}
		}
	}
}
MOTION
Frames: 11
Frame Time: 0.033333
0.685549 0.874382 0.914165 83.490856 -3.284264 103.244133 9.127205 -5.049899 -66.714922 -12.975988 1.291331 66.723420 9.857644 6.852747 -17.744079 0.000000 -0.000000 0.000000 -11.430753 -2.180894 -66.943104 5.510860 -2.844756 72.495476 1.916338 -10.200716 -18.688462 0.000000 -0.000000 0.000000 0.953773 0.448563 34.508247 -0.544262 1.439479 -3.314890 -2.342588 -2.453376 5.001314 -1.933836 3.193002 -10.056797 4.791780 1.719932 -27.267360 -19.282549 22.057264 13.486915 -47.909897 41.421918 -11.524742 -0.701577 -16.914882 31.557617 -45.450594 -0.050491 11.703448 11.786589 -18.570139 20.102803 66.461710 -39.831764 -26.572169 -20.015950 9.439631 -13.693841 32.387366 1.968587 -10.277743 
0.674153 0.876318 0.865037 83.706930 -2.938148 103.227090 9.529664 -3.802030 -70.237293 -13.123092 2.522736 71.510394 10.531147 7.825621 -20.866545 0.000000 -0.000000 0.000000 -11.387274 -2.556352 -68.618796 6.628932 -3.398909 74.334605 0.193077 -11.382845 -22.411736 0.000000 -0.000000 0.000000 1.590754 0.197600 36.818908 -0.248282 1.080057 -3.326426 -2.083766 -3.130161 4.810408 -2.300494 3.327152 -10.378847 5.060444 1.772069 -30.978812 -17.914481 23.825902 15.999088 -50.803326 46.349478 -17.083060 -0.905228 -17.197260 34.249443 -46.824744 -0.631836 12.637680 10.367270 -19.962195 22.888357 68.280181 -42.801056 -34.003174 -20.910663 7.511972 -16.712687 28.238575 3.014365 -14.197549 
0.668694 0.875627 0.820601 83.826075 -2.836774 102.540542 9.721998 -2.309312 -72.713040 -12.747981 4.231034 75.831565 11.099110 7.114782 -23.142878 0.000000 -0.000000 0.000000 -11.416555 -3.187306 -69.458867 6.639563 -4.264375 76.693430 -1.495393 -10.891531 -26.328066 0.000000 -0.000000 0.000000 1.457287 0.071052 39.638113 0.140864 0.138972 -3.705959 -1.403974 -3.504366 3.382522 -2.771382 2.855695 -11.559988 5.582466 2.140564 -32.599489 -19.934600 21.236660 17.440042 -55.964503 46.256226 -19.494874 -0.562942 -18.072234 34.150789 -46.770233 -2.016956 12.061555 12.655111 -17.467742 23.544556 70.434752 -41.629383 -35.593808 -21.036973 7.846370 -16.963669 29.537630 4.230119 -14.384612 
0.670199 0.875193 0.785671 83.144506 -3.087349 100.588996 9.969104 -1.285885 -73.221249 -11.463855 6.112899 79.518912 11.707603 5.969415 -24.647237 0.000000 -0.000000 0.000000 -12.208417 -3.986257 -70.649381 5.558933 -5.669754 81.403148 -2.215184 -7.973357 -27.772512 0.000000 -0.000000 0.000000 0.980627 -0.225758 42.786843 -0.002653 -0.579215 -4.082402 -1.113803 -3.333053 1.345023 -3.542554 2.457625 -13.039939 5.996728 2.455512 -31.552654 -23.937243 15.052298 16.755985 -59.166278 40.379443 -17.019149 1.460858 -19.183345 28.204182 -41.476379 -4.100692 9.921044 16.526366 -11.559799 21.154635 72.884187 -35.302418 -31.847559 -22.402994 7.715712 -21.687467 29.408317 4.225692 -16.052757 
0.677662 0.874481 0.763635 82.210950 -3.409822 97.512979 9.547151 -1.210063 -71.067868 -9.917653 6.849542 82.115658 12.132211 5.089998 -25.825598 0.000000 -0.000000 0.000000 -13.235045 -4.274765 -69.555721 4.661992 -6.637695 84.976254 -2.430589 -5.146076 -28.816244 0.000000 -0.000000 0.000000 0.570639 -0.532243 43.917060 -0.008251 -1.211848 -3.987417 -1.383870 -2.785619 -0.592232 -3.533217 2.853022 -13.137214 5.235948 2.126643 -29.055768 -31.217018 6.184906 15.074519 -54.956589 29.935948 -7.248194 3.240786 -18.027385 20.474783 -31.926837 -6.514318 9.368855 23.722080 -3.540679 16.626982 69.128321 -26.066930 -22.196043 -22.176652 6.589776 -31.225785 21.538445 7.839394 -19.896415 
0.684741 0.873635 0.756951 81.184700 -3.879082 93.017916 8.505220 -1.995087 -66.045352 -9.169913 6.829233 83.301505 12.285364 5.549410 -26.446431 0.000000 -0.000000 0.000000 -13.793261 -3.615381 -64.435622 5.011395 -6.292169 85.123919 -2.475046 -4.196776 -30.058065 0.000000 -0.000000 0.000000 -0.236216 -0.156787 42.280082 0.571845 -2.344411 -3.300448 -1.663145 -2.649496 -1.190844 -2.771984 3.255196 -13.754583 4.282096 1.806337 -25.124466 -38.674395 -4.759344 12.146335 -45.864346 17.463504 3.522867 3.825851 -16.536594 10.341054 -22.307730 -8.381178 9.919817 32.779347 6.099539 11.440902 57.962974 -15.082617 -9.291100 -21.725780 7.082280 -37.473570 21.575295 9.506101 -18.350049 
0.683292 0.874995 0.763906 80.288364 -4.195855 86.056941 6.465106 -2.754099 -57.961147 -9.018418 5.546908 83.280492 12.110145 6.174732 -26.301154 0.000000 -0.000000 0.000000 -13.211831 -2.348407 -56.472277 5.463979 -4.716264 83.860516 -2.101687 -4.177015 -29.816892 0.000000 -0.000000 0.000000 -0.887636 -0.306427 40.652325 0.955072 -3.299133 -3.923143 -1.779831 -2.730800 -0.445455 -1.984940 3.893596 -15.863752 3.161366 1.283105 -20.700231 -41.338587 -14.866405 9.980088 -37.708799 1.192768 9.421777 5.675791 -19.950187 3.564104 -10.157397 -11.890143 3.468640 37.515979 14.966495 8.336768 49.072847 2.219701 1.276900 -21.453924 11.121696 -40.177846 13.660151 13.577029 -22.494214 
0.672171 0.881471 0.776150 79.238608 -4.276698 78.383599 4.202652 -2.641462 -49.106265 -9.060682 3.458930 82.425596 11.430101 6.449020 -25.448370 0.000000 -0.000000 0.000000 -11.558985 -1.540074 -48.625625 5.824023 -2.290457 82.658140 -1.871724 -4.575591 -27.986299 0.000000 -0.000000 0.000000 -0.888738 -0.892468 39.335732 0.806499 -3.901658 -4.194946 -1.367441 -2.547409 -0.492973 -1.219475 4.722651 -22.111171 2.997008 0.750655 -16.841833 -40.162267 -26.348065 7.918741 -28.568440 -15.283896 7.468004 10.194678 -26.651917 -3.418092 -0.372392 -14.619852 -1.416802 38.448758 26.817269 8.696282 41.510472 21.605193 5.789737 -19.799618 16.959969 -39.743084 0.547611 17.195943 -27.992825 
0.661869 0.888398 0.785884 78.117470 -4.558486 73.827282 3.215492 -2.264925 -43.548003 -8.972379 2.629272 81.192860 10.445600 6.267734 -23.849604 0.000000 -0.000000 0.000000 -10.472116 -1.196107 -44.067006 5.977027 -0.498685 81.640060 -2.182089 -4.761098 -26.046696 0.000000 -0.000000 0.000000 -0.889921 -0.629098 37.731924 0.913800 -4.468744 -3.207209 -0.305672 -2.110963 -2.423103 -1.231130 5.135027 -27.730954 3.470203 0.414616 -16.218039 -33.973692 -36.612758 4.911973 -21.227980 -23.789029 2.255265 16.464167 -31.901828 -15.555892 2.113812 -16.123147 -4.597399 33.877172 38.084165 7.677744 36.027246 34.127858 4.171615 -21.525557 19.280157 -43.715620 1.714242 18.035555 -27.629762 
0.657191 0.896229 0.805973 75.871048 -5.158591 69.825290 2.685762 -0.933677 -37.180158 -9.273091 1.813336 78.415775 8.104686 5.821465 -19.948202 0.000000 -0.000000 0.000000 -9.435527 -1.196349 -38.835066 6.279361 1.450974 79.059462 -2.372447 -3.958819 -23.084920 0.000000 -0.000000 0.000000 -0.656395 0.056073 34.286024 0.948723 -4.537589 -2.718050 0.959507 -0.167261 -6.203498 -0.907238 5.512935 -32.142440 3.839593 -0.465708 -18.490976 -19.009837 -46.090499 -4.275514 -8.918021 -28.706878 -4.145679 21.852317 -38.919433 -28.689463 8.880328 -19.819092 -10.309598 20.560334 49.982376 1.592543 23.159183 45.519553 -4.563321 -25.175600 24.049418 -51.782557 -7.814942 20.041610 -33.172614 
0.672364 0.894891 0.850972 72.939375 -6.161873 65.736341 2.294502 2.089083 -27.060994 -10.222704 -0.033677 72.525929 5.449987 5.142796 -14.296351 0.000000 -0.000000 0.000000 -9.241095 -2.857216 -29.335888 7.964077 4.152820 72.709641 -1.689344 -2.131303 -18.817509 0.000000 -0.000000 0.000000 1.582455 1.039792 28.024400 -0.856066 -2.329677 -2.732272 0.229599 1.995305 -8.932127 0.386732 1.958355 -32.324346 4.322821 0.838632 -20.048251 -6.588275 -49.089168 -16.940846 -0.591150 -30.428513 -1.842503 20.556983 -42.730324 -30.115142 11.778529 -23.987460 -9.764859 3.455054 54.722123 -10.298919 6.342474 46.075017 -17.130681 -28.054895 27.395182 -58.194605 -6.847391 23.465853 -31.803942 
